<?xml version="1.0" encoding="UTF-8"?>
<svg width="128px" height="128px" viewBox="0 0 128 128" version="1.1" xmlns="http://www.w3.org/2000/svg" xmlns:xlink="http://www.w3.org/1999/xlink" style="background: #161D3A;">
    <!-- Generator: Sketch 49.3 (51167) - http://www.bohemiancoding.com/sketch -->
    <title>asteroid-02</title>
    <desc>Created with Sketch.</desc>
    <defs></defs>
    <g id="asteroid-02" stroke="none" stroke-width="1" fill="none" fill-rule="evenodd">
        <polygon id="Path-3" fill="#775324" points="41.3804486 22.8490952 33.5295246 31.0125487 34.997837 42.7471741 27.3147957 49.8700114 31.7712337 68.2997679 43.7696022 72.9313485 49.9556554 84.9283328 56.2346999 76.0527515 67.7511129 76.0527515 72.2428879 64 83.8730555 60.503032 88.3965773 49.8700114 83.8730555 42.7471741 88.3965773 34.2301042 79.5819915 25.2340963 64 27.754842 56.2346999 27.754842"></polygon>
        <polygon id="Path-4" fill="#A27B4A" points="52.5944167 28.8514856 42.3122023 27 37 31.6427447 41.3454145 32.5245655"></polygon>
        <polygon id="Path-4-Copy" fill="#A27B4A" points="66.4865308 70 57 71.6171509 66.4865308 73.8155255"></polygon>
        <polygon id="Path-4-Copy-2" fill="#A27B4A" points="70.1752571 42 67.6863812 46.945176 62 49.8469607 64.842133 54.1385053 71.5383641 54.7168316"></polygon>
        <polygon id="Path-5" fill="#A27B4A" points="30.7871726 51.6037975 34.5608612 64 35.3498579 57.4576151 35.8446284 44.7118095"></polygon>
        <polygon id="Path-5-Copy" fill="#A27B4A" points="82.8295342 38.7116576 85.0633628 34.8335375 77.4057966 29.5956561"></polygon>
    </g>
</svg>