<?xml version="1.0" encoding="UTF-8"?>
<svg width="128px" height="128px" viewBox="0 0 128 128" version="1.1" xmlns="http://www.w3.org/2000/svg" xmlns:xlink="http://www.w3.org/1999/xlink" style="background: #161D3A;">
    <!-- Generator: Sketch 49.3 (51167) - http://www.bohemiancoding.com/sketch -->
    <title>asteroid-03</title>
    <desc>Created with Sketch.</desc>
    <defs></defs>
    <g id="asteroid-03" stroke="none" stroke-width="1" fill="none" fill-rule="evenodd">
        <polygon id="Path-3" fill="#775324" points="92.2919828 29.1455509 102.91841 52.0739828 118.732781 64 118.732781 84.2503814 123.332102 100.456778 118.732781 118.282449 99.553658 123.732882 78.4046086 121.570553 59.0981375 123.732882 42.3759044 118.282449 23.2879992 115.562458 18.0592236 93.2718292 23.2879992 79.7160179 18.0592236 58.83342 30.7581007 44.4812511 47.0856506 42.542807 57.0910951 25.6256809 74.7232533 29.1455509"></polygon>
        <polygon id="Path-4" fill="#A27B4A" points="51.3392942 42.2798169 58.7591617 29.1199683 64 31.5031316"></polygon>
        <polygon id="Path-4-Copy" fill="#A27B4A" points="33.7380254 106.647242 28.4702972 110.068145 23 95"></polygon>
        <polygon id="Path-4-Copy-2" fill="#A27B4A" points="79.5400067 99 63.2052304 112.283497 58 102.520143 65.4631692 105.641748"></polygon>
        <polygon id="Path-5" fill="#A27B4A" points="36.0441809 50 50.0936698 50.8031611 30.0623191 59.9045877 30.0623191 75.9957419 23 58.1620432"></polygon>
        <polygon id="Path-5-Copy-2" fill="#A27B4A" points="77.0507403 38.6940028 86.5957178 38.6940028 82.3010159 54.5768687 81.8199494 44.2884344"></polygon>
        <polygon id="Path-5-Copy" fill="#A27B4A" points="101.454125 118.964821 94.6103286 105.074512 106.90825 116.550733"></polygon>
        <polygon id="Path-6" fill="#A27B4A" points="63.0493408 71.0856496 54.494565 68.3006944 56.6067191 82.3978069"></polygon>
    </g>
</svg>